{
  "accessors": [
    {
      "bufferView": 2,
      "componentType": 5126,
      "count": 54685,
      "max": [
        15.856399536132813,
        5.661300182342529,
        14.303199768066406
      ],
      "min": [
        -15.333600044250488,
        -5.896900177001953,
        -0.003000000026077032
      ],
      "type": "VEC3"
    },
    {
      "bufferView": 2,
      "byteOffset": 656220,
      "componentType": 5126,
      "count": 54685,
      "max": [
        0.9997941851615906,
        0.9999796152114868,
        0.9999256134033203
      ],
      "min": [
        -0.9999322891235352,
        -0.9999980926513672,
        -0.9999984502792358
      ],
      "type": "VEC3"
    },
    {
      "bufferView": 1,
      "componentType": 5126,
      "count": 54685,
      "max": [
        0.9980000257492065,
        0.9980000257492065
      ],
      "min": [
        0.16189999878406525,
        0.0020000000949949026
      ],
      "type": "VEC2"
    },
    {
      "bufferView": 0,
      "componentType": 5125,
      "count": 320832,
      "type": "SCALAR"
    }
  ],
  "asset": {
    "extras": {
      "author": "NIKE (https://sketchfab.com/nike)",
      "license": "CC-BY-4.0 (http://creativecommons.org/licenses/by/4.0/)",
      "source": "https://sketchfab.com/3d-models/shoe-91-1999-air-zoom-citizen-15110-28d887381e324b669b2293aac509ddb1",
      "title": "Shoe 91 - 1999 - Air Zoom Citizen - 15110"
    },
    "generator": "Sketchfab-12.67.0",
    "version": "2.0"
  },
  "bufferViews": [
    {
      "buffer": 0,
      "byteLength": 1283328,
      "name": "floatBufferViews",
      "target": 34963
    },
    {
      "buffer": 0,
      "byteLength": 437480,
      "byteOffset": 1283328,
      "byteStride": 8,
      "name": "floatBufferViews",
      "target": 34962
    },
    {
      "buffer": 0,
      "byteLength": 1312440,
      "byteOffset": 1720808,
      "byteStride": 12,
      "name": "floatBufferViews",
      "target": 34962
    }
  ],
  "buffers": [
    {
      "byteLength": 3033248,
      "uri": "scene.bin"
    }
  ],
  "extensionsUsed": [
    "KHR_materials_unlit"
  ],
  "images": [
    {
      "uri": "textures/Shoe_091_L_baseColor.jpeg"
    },
    {
      "uri": "textures/Shoe_091_L_emissive.jpeg"
    }
  ],
  "materials": [
    {
      "doubleSided": true,
      "emissiveFactor": [
        0.37,
        0.37,
        0.37
      ],
      "emissiveTexture": {
        "index": 1
      },
      "extensions": {
        "KHR_materials_unlit": {}
      },
      "name": "Shoe_091_L",
      "pbrMetallicRoughness": {
        "baseColorTexture": {
          "index": 0
        },
        "metallicFactor": 0.0
      }
    }
  ],
  "meshes": [
    {
      "name": "Object_0",
      "primitives": [
        {
          "attributes": {
            "NORMAL": 1,
            "POSITION": 0,
            "TEXCOORD_0": 2
          },
          "indices": 3,
          "material": 0,
          "mode": 4
        }
      ]
    }
  ],
  "nodes": [
    {
      "children": [
        1
      ],
      "matrix": [
        1.0,
        0.0,
        0.0,
        0.0,
        0.0,
        2.220446049250313e-16,
        -1.0,
        0.0,
        0.0,
        1.0,
        2.220446049250313e-16,
        0.0,
        0.0,
        0.0,
        0.0,
        1.0
      ],
      "name": "Sketchfab_model"
    },
    {
      "children": [
        2
      ],
      "name": "Shoe-091.obj.cleaner.materialmerger.gles"
    },
    {
      "mesh": 0,
      "name": "Object_2"
    }
  ],
  "samplers": [
    {
      "magFilter": 9729,
      "minFilter": 9987,
      "wrapS": 10497,
      "wrapT": 10497
    }
  ],
  "scene": 0,
  "scenes": [
    {
      "name": "Sketchfab_Scene",
      "nodes": [
        0
      ]
    }
  ],
  "textures": [
    {
      "sampler": 0,
      "source": 0
    },
    {
      "sampler": 0,
      "source": 1
    }
  ]
}
